<svg width="71" height="70" viewBox="0 0 71 70" fill="none" xmlns="http://www.w3.org/2000/svg">
<g clip-path="url(#clip0_1_596)">
<path d="M47.4775 70H23.5221C22.5433 69.4859 22.2253 68.9646 22.4477 68.2482C22.6534 67.5919 23.2769 67.2693 24.3555 67.2674C25.3821 67.2674 26.4087 67.2674 27.4686 67.2674C28.0027 64.7154 28.5222 62.2435 29.0605 59.6695C28.6365 59.6695 28.3331 59.6695 28.0297 59.6695C21.8886 59.6695 15.7476 59.6732 9.60647 59.6641C8.88326 59.6641 8.1455 59.6477 7.44306 59.5201C3.25341 58.7672 0.51019 55.7667 0.506033 51.9404C0.495642 42.4667 0.499799 32.993 0.503955 23.5193C0.503955 18.8016 4.15951 15.5932 9.52958 15.5859C10.2466 15.5859 10.9615 15.5859 11.7304 15.5859C11.7304 15.2268 11.7304 14.957 11.7304 14.6872C11.7304 11.2255 11.72 7.7638 11.7345 4.30208C11.7429 2.22214 13.0334 0.71276 15.2425 0.134896C15.361 0.103906 15.4711 0.0455729 15.5854 0C28.861 0 42.1344 0 55.41 0C58.5231 1.11198 59.2671 2.1 59.2671 5.1224C59.2671 8.35625 59.2671 11.5901 59.2671 14.824C59.2671 15.0628 59.2671 15.3034 59.2671 15.5859C60.1296 15.5859 60.8757 15.5841 61.6238 15.5859C66.7985 15.606 70.4873 18.838 70.4915 23.3826C70.4998 32.8781 70.4977 42.3755 70.4853 51.8711C70.4853 52.5255 70.4229 53.1964 70.2525 53.8326C69.3048 57.3872 65.9527 59.6531 61.6259 59.6622C55.4079 59.6768 49.1879 59.6659 42.9699 59.6659C42.6665 59.6659 42.3631 59.6659 41.937 59.6659C42.4815 62.2581 43.0052 64.7482 43.5331 67.2638C44.753 67.2638 45.8918 67.2438 47.0286 67.2693C48.0428 67.2911 48.6704 67.9383 48.5873 68.7859C48.527 69.4185 48.0261 69.7211 47.4754 69.9945L47.4775 70ZM14.8893 9.82552V49.7693H56.0979V9.82552H14.8893ZM67.3181 52.6331H3.62541C3.72309 53.0013 3.77712 53.2911 3.87687 53.5719C4.62087 55.6755 6.66374 56.9315 9.3841 56.9333C26.7994 56.937 44.2147 56.9352 61.63 56.9333C61.8628 56.9333 62.0956 56.926 62.3283 56.9096C64.9801 56.7383 66.998 55.0302 67.3181 52.6331ZM11.6701 49.7893V25.4807H3.65658V49.7893H11.6701ZM67.3326 49.7839V25.4753H59.3108V49.7839H67.3326ZM14.8643 6.98177H56.0979C56.127 6.87057 56.1477 6.825 56.1477 6.78125C56.1519 6.05208 56.1581 5.32474 56.1561 4.59557C56.154 3.17188 55.6469 2.73438 54.0031 2.73438C41.671 2.73438 29.339 2.73438 17.0069 2.73438C16.7991 2.73438 16.5913 2.72708 16.3856 2.73984C15.5564 2.79271 14.9308 3.24479 14.8809 3.97214C14.8144 4.9638 14.8643 5.96276 14.8643 6.98177ZM40.3597 67.2365C39.8484 64.7974 39.358 62.4276 38.8363 60.0633C38.8031 59.9102 38.5205 59.6896 38.3521 59.6878C36.3342 59.6622 34.3163 59.6714 32.2339 59.6714C31.6998 62.207 31.174 64.7008 30.6378 67.2383H40.3617L40.3597 67.2365ZM11.6722 22.6734V18.3677C6.88611 17.974 3.70438 19.7039 3.72516 22.6734H11.6722ZM59.3025 22.668H67.2994C67.1788 20.6883 65.4996 18.869 63.2593 18.4935C61.9833 18.2802 60.6512 18.3294 59.3045 18.2583V22.668H59.3025Z" fill="#21A715"/>
<path d="M16.8034 32.8671C16.8034 29.2923 16.8013 25.7176 16.8034 22.1429C16.8055 19.8588 18.2477 18.5882 20.833 18.5845C23.0609 18.5809 25.2887 18.5772 27.5165 18.5845C29.8109 18.5936 31.3529 19.8788 31.3591 21.8986C31.3841 29.2304 31.3841 36.5621 31.3591 43.8939C31.3529 45.9155 29.8275 47.197 27.5228 47.2098C25.218 47.2226 22.9112 47.2262 20.6065 47.2098C18.308 47.1934 16.8138 45.8827 16.8076 43.8647C16.793 40.1989 16.8034 36.533 16.8034 32.8671ZM28.2626 32.9528C28.2626 29.3798 28.2564 25.8051 28.2688 22.2322C28.2709 21.6416 28.1421 21.2934 27.3295 21.3061C25.1557 21.3408 22.9777 21.3335 20.8039 21.3098C20.1181 21.3025 19.9041 21.5449 19.9062 22.1228C19.9186 29.316 19.9207 36.5093 19.9062 43.7007C19.9062 44.3077 20.1826 44.4936 20.833 44.4882C22.9299 44.4681 25.0289 44.4827 27.1258 44.4809C28.1961 44.4809 28.2605 44.4226 28.2626 43.471C28.2647 39.9655 28.2626 36.4601 28.2626 32.9546V32.9528Z" fill="#0D0D0D"/>
<path d="M44.0447 18.5845C46.1166 18.5845 48.1907 18.5772 50.2626 18.5864C52.5071 18.5973 54.0325 19.8916 54.0616 21.8658C54.0969 24.1645 54.0948 26.465 54.0616 28.7655C54.0346 30.7124 52.5736 32.034 50.3478 32.0541C46.1249 32.0942 41.902 32.096 37.6791 32.0541C35.3952 32.0322 33.9509 30.6559 33.9446 28.6361C33.9384 26.4267 33.9384 24.2192 33.9446 22.0098C33.9509 19.9244 35.4575 18.5937 37.8246 18.5845C39.8966 18.5772 41.9706 18.5845 44.0426 18.5845H44.0447ZM37.0557 25.0468C37.7394 24.5564 38.2797 24.1426 38.8512 23.7634C40.2499 22.8319 41.9997 22.8465 43.3755 23.7963C43.8639 24.1335 44.3668 24.4653 44.797 24.8554C45.3602 25.3658 45.8195 25.302 46.3723 24.8408C47.5859 23.8236 48.9887 23.6358 50.5307 24.2064C50.643 24.2483 50.7635 24.2702 50.9588 24.3231C50.9588 23.4791 50.963 22.6843 50.9588 21.8913C50.9547 21.452 50.6617 21.3134 50.1982 21.3153C46.0813 21.3207 41.9644 21.3207 37.8475 21.3153C37.2864 21.3153 37.0494 21.5285 37.0578 22.0153C37.0723 22.9705 37.0619 23.9257 37.0619 25.0468H37.0557ZM43.9761 29.3343C45.994 29.3343 48.014 29.3507 50.032 29.3179C50.3312 29.3124 50.8632 29.0973 50.8778 28.9478C50.9277 28.4301 51.283 27.8213 50.5744 27.3983C49.5367 26.7798 48.6943 26.7008 48.0473 27.1614C46.4595 28.297 44.6723 28.297 43.0949 27.1595C42.6544 26.8424 42.2034 26.5343 41.7981 26.1843C41.3201 25.7723 40.917 25.7541 40.4016 26.1606C39.4976 26.8733 38.5271 27.5223 37.6168 28.2314C37.3799 28.4155 37.2614 28.72 37.0889 28.9679C37.4173 29.09 37.7436 29.3142 38.0761 29.3197C40.0421 29.3525 42.0101 29.3361 43.9761 29.3361V29.3343Z" fill="#0D0D0D"/>
<path d="M44.0027 47.2136C41.9557 47.2136 39.9087 47.2209 37.8637 47.2118C35.4343 47.2009 33.9505 45.8865 33.9443 43.7537C33.9401 41.5462 33.9359 39.3368 33.9443 37.1292C33.9526 35.1204 35.4468 33.7641 37.7183 33.755C41.9141 33.735 46.1121 33.735 50.308 33.755C52.5234 33.766 54.0259 35.0639 54.0571 37.0053C54.0945 39.3277 54.0945 41.6501 54.0571 43.9725C54.0238 45.9121 52.515 47.1936 50.2955 47.2118C48.1965 47.23 46.0996 47.2154 44.0007 47.2173L44.0027 47.2136ZM48.874 44.4811C49.2938 44.4811 49.6035 44.4811 49.9131 44.4811C50.8816 44.4738 50.9585 44.41 50.9585 43.5313C50.9626 41.4587 50.9439 39.3842 50.9689 37.3115C50.9772 36.6972 50.7236 36.4675 50.0129 36.4712C46.0207 36.4912 42.0285 36.4912 38.0383 36.4712C37.2985 36.4675 37.0283 36.6936 37.0408 37.348C37.074 39.2384 37.0532 41.1287 37.0532 43.0209C37.0532 44.5667 37.0761 44.585 38.8384 44.472C38.9112 44.4665 38.9818 44.4355 39.1314 44.3954C39.1917 42.9553 38.9112 41.4332 40.2225 40.2209C41.5505 38.9923 43.24 39.0761 44.9296 39.1144C45.923 39.1363 46.7917 39.4444 47.5482 40.0204C49.1068 41.2108 48.8761 42.8332 48.874 44.4811ZM45.7588 44.4556C45.7588 43.8084 45.7796 43.2214 45.7526 42.6363C45.7276 42.1186 45.3536 41.7977 44.7945 41.8615C43.9487 41.96 42.7745 41.3639 42.3527 42.4431C42.1199 43.0391 42.3111 43.7647 42.3111 44.4556H45.7609H45.7588Z" fill="#0D0D0D"/>
<path d="M38.533 16.0725C33.9983 16.0725 29.4637 16.0762 24.9291 16.0707C23.7383 16.0707 23.0712 15.5931 23.0358 14.7619C23.0067 14.0491 23.5284 13.4804 24.3326 13.3783C24.6381 13.34 24.9519 13.3418 25.2637 13.3418C34.1272 13.3418 42.9886 13.3418 51.8521 13.3418C52.1618 13.3418 52.4777 13.3418 52.7811 13.3819C53.523 13.4822 54.028 13.9962 54.055 14.647C54.0841 15.3361 53.602 15.8957 52.8331 16.0197C52.5047 16.0725 52.1639 16.0707 51.8272 16.0707C47.3965 16.0744 42.9637 16.0725 38.533 16.0707V16.0725Z" fill="#21A715"/>
<path d="M16.812 14.7038C16.812 13.9454 17.4687 13.3621 18.3291 13.3548C19.1812 13.3475 19.8794 13.9327 19.9044 14.6691C19.9293 15.4238 19.1999 16.0673 18.3291 16.0582C17.4791 16.0491 16.812 15.4548 16.812 14.7019V14.7038Z" fill="#21A715"/>
<path d="M52.0829 3.54368C52.4445 3.54368 52.8103 3.51998 53.1698 3.54915C53.9408 3.60931 54.5123 4.13248 54.5726 4.79602C54.6287 5.42311 54.1819 6.08483 53.4504 6.16321C52.511 6.26165 51.5384 6.26712 50.5991 6.16868C49.8239 6.08665 49.4083 5.43951 49.4789 4.74498C49.5454 4.08144 50.1149 3.59472 50.9171 3.5455C51.3036 3.52181 51.6943 3.54186 52.0829 3.54186V3.5455V3.54368Z" fill="#21A715"/>
<path d="M24.0379 29.9377C23.4435 29.9377 22.8491 29.9595 22.2569 29.9322C21.3819 29.8903 20.7356 29.2924 20.7398 28.5687C20.7439 27.845 21.3902 27.2398 22.2693 27.2179C23.4809 27.1887 24.6967 27.1869 25.9082 27.2179C26.7998 27.2416 27.417 27.834 27.4129 28.5778C27.4087 29.3197 26.7873 29.8921 25.8958 29.9304C25.2786 29.9577 24.6572 29.9358 24.0379 29.9358V29.9377Z" fill="#0D0D0D"/>
<path d="M24.1395 36.3691C24.6819 36.3691 25.2243 36.3582 25.7667 36.3709C26.7643 36.3965 27.423 36.9561 27.4127 37.7509C27.4023 38.5165 26.7559 39.078 25.8041 39.0944C24.6424 39.1144 23.4807 39.1162 22.319 39.0944C21.3963 39.0743 20.725 38.4655 20.7375 37.7181C20.7499 36.9688 21.4233 36.4092 22.3585 36.3709C22.4104 36.3691 22.4624 36.3709 22.5143 36.3709C23.0567 36.3709 23.5992 36.3709 24.1416 36.3709L24.1395 36.3691Z" fill="#0D0D0D"/>
<path d="M24.1314 22.6443C24.7279 22.6443 25.3243 22.6206 25.9187 22.6498C26.7957 22.6936 27.3901 23.2331 27.4129 23.9532C27.4358 24.6769 26.883 25.2857 26.0101 25.3258C24.7445 25.3824 23.4706 25.3824 22.205 25.3331C21.2989 25.2985 20.6983 24.6623 20.7398 23.935C20.7793 23.2222 21.3882 22.7063 22.2652 22.6443C22.3172 22.6407 22.3691 22.6389 22.4211 22.6389C22.9905 22.6389 23.562 22.6389 24.1314 22.6389C24.1314 22.6407 24.1314 22.6425 24.1314 22.6443Z" fill="#0D0D0D"/>
<path d="M24.0377 34.5115C23.4413 34.5115 22.8428 34.5443 22.2505 34.5042C21.3319 34.4404 20.723 33.8662 20.7376 33.1352C20.75 32.4006 21.3818 31.8318 22.2962 31.81C23.487 31.7808 24.682 31.7808 25.8728 31.81C26.7914 31.8318 27.4065 32.3969 27.4148 33.1425C27.4231 33.8662 26.8599 34.4003 25.9809 34.5042C25.904 34.5133 25.8271 34.5243 25.7481 34.5243C25.1787 34.5243 24.6072 34.5243 24.0377 34.5243C24.0377 34.5206 24.0377 34.5152 24.0377 34.5115Z" fill="#0D0D0D"/>
<path d="M24.1103 40.9629C24.7067 40.9629 25.3031 40.941 25.8975 40.9683C26.7787 41.0103 27.3793 41.5371 27.4104 42.2553C27.4458 43.0045 26.8701 43.6152 25.9515 43.6535C24.7109 43.7045 23.4639 43.7045 22.2233 43.6553C21.3109 43.6189 20.7082 43.0009 20.7373 42.2717C20.7664 41.5371 21.3961 41.0012 22.3209 40.9665C22.9153 40.9428 23.5138 40.9629 24.1082 40.9647L24.1103 40.9629Z" fill="#0D0D0D"/>
</g>
<defs>
<clipPath id="clip0_1_596">
<rect width="70" height="70" fill="white" transform="translate(0.5)"/>
</clipPath>
</defs>
</svg>
