<svg width="71" height="63" viewBox="0 0 71 63" fill="none" xmlns="http://www.w3.org/2000/svg">
<mask id="path-1-outside-1_1_619" maskUnits="userSpaceOnUse" x="-0.5" y="0" width="72" height="63" fill="black">
<rect fill="white" x="-0.5" width="72" height="63"/>
<path d="M70.5 6.97684V56.3542C70.4635 56.4434 70.4087 56.5267 70.3904 56.6199C69.6872 60.1695 67.2727 62.3072 63.9285 62.329C62.7213 62.337 61.514 62.329 60.3049 62.329C42.6015 62.329 24.898 62.331 7.19271 62.329C3.28966 62.329 0.508022 59.41 0.504369 55.2754C0.497064 39.5322 0.497064 23.7929 0.518981 8.05362C0.518981 7.2505 0.64683 6.41564 0.878785 5.65416C1.77008 2.72722 4.1499 1 7.19636 1C26.0614 1 44.9283 1 63.7934 1C63.976 1 64.1587 1 64.3395 1.00793C66.8581 1.14873 68.6973 2.45752 69.8315 4.88673C70.1347 5.53716 70.2808 6.27485 70.4982 6.97287L70.5 6.97684ZM12.9989 59.3188C12.9989 56.3661 12.9989 53.4927 12.9989 50.6193C12.9989 48.3646 12.9843 46.1079 13.0044 43.8532C13.0245 41.6501 14.2975 40.2877 16.3065 40.2818C17.7878 40.2778 19.269 40.2798 20.7484 40.2818C22.9419 40.2837 24.1674 41.6163 24.1693 44.0118C24.1729 48.8207 24.1693 53.6275 24.1693 58.4364C24.1693 58.7239 24.1693 59.0114 24.1693 59.3148H28.2623C28.2623 59.0075 28.2623 58.7418 28.2623 58.476C28.2623 55.9477 28.2586 53.4193 28.2659 50.8929C28.2659 50.5241 28.2897 50.1493 28.3444 49.7864C28.5326 48.5312 29.2522 47.6705 30.211 46.9943C29.0403 43.9325 27.8878 40.9183 26.7354 37.9061C25.6815 35.1517 26.0486 33.3412 28.0175 31.2828C30.4722 28.7168 32.7826 26.0218 34.3059 22.6487C34.5451 22.1192 34.9543 21.8357 35.5131 21.8357C36.0994 21.8357 36.4884 22.143 36.7697 22.6884C37.2391 23.5926 37.6336 24.5742 38.2382 25.3575C39.8892 27.4972 41.5933 29.5952 43.354 31.6298C44.8023 33.3035 45.2498 35.2905 44.4571 37.4302C44.0498 38.5308 43.6224 39.6254 43.206 40.722C42.4115 42.822 41.6189 44.922 40.8152 47.0419C42.3056 48.0056 42.7841 49.4453 42.7494 51.2182C42.7001 53.6454 42.7366 56.0746 42.7366 58.5038V59.297H46.5666C46.5666 58.9678 46.5666 58.6981 46.5666 58.4264C46.5666 54.857 46.5301 51.2876 46.5958 47.7201C46.6105 46.9784 46.8369 46.09 47.2643 45.5447C47.783 44.8824 47.8944 44.2518 47.8707 43.4725C47.825 41.9078 48.4551 40.7716 49.7336 40.0359C49.9163 39.9308 50.0934 39.6135 50.1026 39.3874C50.1427 38.3979 50.1117 37.4064 50.1227 36.4149C50.1336 35.4313 50.6596 34.8007 51.4559 34.7848C52.276 34.7689 52.8367 35.4194 52.8513 36.4327C52.8659 37.3984 52.8732 38.3662 52.8458 39.3319C52.8349 39.7344 52.9463 39.9427 53.2933 40.1132C54.1718 40.5455 54.7727 41.2991 54.9736 42.3223C55.0996 42.9668 55.0357 43.6529 55.0942 44.3172C55.1161 44.5651 55.18 44.8764 55.3334 45.0291C56.1352 45.8263 56.4201 46.8079 56.4147 47.96C56.3964 51.4799 56.4092 54.9978 56.4092 58.5177C56.4092 58.7814 56.4092 59.0432 56.4092 59.3585C58.9351 59.3585 61.3679 59.3624 63.8025 59.3585C66.2846 59.3545 67.764 57.7542 67.764 55.0692C67.7658 43.9662 67.764 32.8633 67.764 21.7583C67.764 21.4966 67.764 21.2368 67.764 20.977H3.23669C3.23669 21.2784 3.23669 21.5441 3.23669 21.8099C3.23669 32.8633 3.23669 43.9167 3.23669 54.972C3.23669 55.2199 3.23121 55.4678 3.24765 55.7157C3.36271 57.5083 4.67591 59.1978 6.29229 59.2891C8.49129 59.414 10.6994 59.3208 12.9989 59.3208V59.3188ZM3.24582 17.9053H67.7549C67.7549 14.4291 67.7549 11.0083 67.7531 7.5896C67.7531 7.46665 67.7293 7.3437 67.7074 7.22274C67.3385 5.17824 65.8993 3.97454 63.7989 3.97454C44.932 3.97454 26.0669 3.97454 7.20002 3.97454C7.01737 3.97454 6.83473 3.97454 6.65392 3.98445C4.86951 4.07369 3.30244 5.64425 3.26409 7.59158C3.19834 11.0083 3.24582 14.4291 3.24582 17.9073V17.9053ZM34.1342 46.5144C34.1342 44.113 34.1287 41.7373 34.1378 39.3636C34.1415 38.3424 34.6931 37.7098 35.5278 37.7256C36.3314 37.7395 36.8574 38.3602 36.8647 39.3478C36.8756 41.1305 36.8683 42.9152 36.8683 44.698C36.8683 45.3107 36.8683 45.9255 36.8683 46.6433C37.3797 46.4688 37.9204 46.919 38.2108 46.1396C39.4399 42.8399 40.7002 39.552 41.9421 36.2582C42.3019 35.3044 42.1193 34.4715 41.4326 33.7596C40.8554 33.1607 40.2582 32.5817 39.7322 31.9332C38.2911 30.1564 36.8848 28.3479 35.4474 26.5315C35.4401 26.5414 35.3579 26.6207 35.2976 26.7179C33.705 29.274 31.7836 31.5168 29.7234 33.6287C28.8193 34.5548 28.6805 35.2469 29.1536 36.4862C30.3316 39.5699 31.5425 42.6376 32.6731 45.741C32.9653 46.5422 33.3507 46.7742 34.136 46.5184L34.1342 46.5144ZM40.0061 59.3327V58.6029C40.0061 56.0528 40.0061 53.5046 40.0061 50.9544C40.0061 49.8459 39.7723 49.5802 38.7715 49.5782C36.5871 49.5722 34.4027 49.5722 32.2183 49.5782C31.2448 49.5802 30.9982 49.8499 30.9964 50.8929C30.9928 53.4927 30.9946 56.0904 30.9964 58.6902C30.9964 58.9024 31.022 59.1126 31.0366 59.3347H40.0043L40.0061 59.3327ZM21.4351 59.3228C21.4351 58.4483 21.4351 57.659 21.4351 56.8678C21.4351 52.6083 21.4351 48.3467 21.4351 44.0872C21.4351 43.6489 21.4698 43.2365 20.8671 43.2444C19.342 43.2662 17.8152 43.2345 16.2919 43.2741C16.1038 43.2781 15.7897 43.5577 15.7641 43.7441C15.6929 44.2934 15.7385 44.8606 15.7385 45.4694C16.3851 45.4694 16.9293 45.4614 17.4736 45.4694C18.4215 45.4852 19.0352 46.0583 19.0462 46.9249C19.0589 47.8192 18.4252 48.4221 17.4444 48.438C16.9019 48.4459 16.3595 48.438 15.7915 48.438V50.2722C16.4417 50.2722 17.0316 50.2504 17.6216 50.2782C18.4599 50.3159 19.0389 50.9346 19.0462 51.7555C19.0535 52.6023 18.4489 53.219 17.5722 53.2408C16.9878 53.2547 16.4015 53.2428 15.7897 53.2428V55.1108C16.3905 55.1108 16.933 55.1009 17.4773 55.1128C18.4343 55.1346 19.0389 55.7038 19.048 56.5723C19.0589 57.4667 18.4325 58.0596 17.4426 58.0794C16.9019 58.0893 16.3595 58.0794 15.7842 58.0794V59.3148H21.4351V59.3228ZM53.675 59.3188C53.675 55.4122 53.6714 51.5989 53.6805 47.7855C53.6805 47.3294 53.4632 47.262 53.118 47.264C52.0696 47.2759 51.0213 47.3017 49.9747 47.2541C49.4104 47.2283 49.288 47.4563 49.2916 48.0255C49.3117 51.5929 49.3008 55.1624 49.3044 58.7299C49.3044 58.9202 49.3318 59.1106 49.3483 59.3188H53.675ZM52.4239 44.2577C52.3271 43.7421 52.3728 43.0501 52.1244 42.8855C51.7902 42.6634 51.1254 42.6792 50.7984 42.9152C50.5592 43.0877 50.6359 43.7778 50.5683 44.2577H52.4239Z"/>
</mask>
<path d="M70.5 6.97684V56.3542C70.4635 56.4434 70.4087 56.5267 70.3904 56.6199C69.6872 60.1695 67.2727 62.3072 63.9285 62.329C62.7213 62.337 61.514 62.329 60.3049 62.329C42.6015 62.329 24.898 62.331 7.19271 62.329C3.28966 62.329 0.508022 59.41 0.504369 55.2754C0.497064 39.5322 0.497064 23.7929 0.518981 8.05362C0.518981 7.2505 0.64683 6.41564 0.878785 5.65416C1.77008 2.72722 4.1499 1 7.19636 1C26.0614 1 44.9283 1 63.7934 1C63.976 1 64.1587 1 64.3395 1.00793C66.8581 1.14873 68.6973 2.45752 69.8315 4.88673C70.1347 5.53716 70.2808 6.27485 70.4982 6.97287L70.5 6.97684ZM12.9989 59.3188C12.9989 56.3661 12.9989 53.4927 12.9989 50.6193C12.9989 48.3646 12.9843 46.1079 13.0044 43.8532C13.0245 41.6501 14.2975 40.2877 16.3065 40.2818C17.7878 40.2778 19.269 40.2798 20.7484 40.2818C22.9419 40.2837 24.1674 41.6163 24.1693 44.0118C24.1729 48.8207 24.1693 53.6275 24.1693 58.4364C24.1693 58.7239 24.1693 59.0114 24.1693 59.3148H28.2623C28.2623 59.0075 28.2623 58.7418 28.2623 58.476C28.2623 55.9477 28.2586 53.4193 28.2659 50.8929C28.2659 50.5241 28.2897 50.1493 28.3444 49.7864C28.5326 48.5312 29.2522 47.6705 30.211 46.9943C29.0403 43.9325 27.8878 40.9183 26.7354 37.9061C25.6815 35.1517 26.0486 33.3412 28.0175 31.2828C30.4722 28.7168 32.7826 26.0218 34.3059 22.6487C34.5451 22.1192 34.9543 21.8357 35.5131 21.8357C36.0994 21.8357 36.4884 22.143 36.7697 22.6884C37.2391 23.5926 37.6336 24.5742 38.2382 25.3575C39.8892 27.4972 41.5933 29.5952 43.354 31.6298C44.8023 33.3035 45.2498 35.2905 44.4571 37.4302C44.0498 38.5308 43.6224 39.6254 43.206 40.722C42.4115 42.822 41.6189 44.922 40.8152 47.0419C42.3056 48.0056 42.7841 49.4453 42.7494 51.2182C42.7001 53.6454 42.7366 56.0746 42.7366 58.5038V59.297H46.5666C46.5666 58.9678 46.5666 58.6981 46.5666 58.4264C46.5666 54.857 46.5301 51.2876 46.5958 47.7201C46.6105 46.9784 46.8369 46.09 47.2643 45.5447C47.783 44.8824 47.8944 44.2518 47.8707 43.4725C47.825 41.9078 48.4551 40.7716 49.7336 40.0359C49.9163 39.9308 50.0934 39.6135 50.1026 39.3874C50.1427 38.3979 50.1117 37.4064 50.1227 36.4149C50.1336 35.4313 50.6596 34.8007 51.4559 34.7848C52.276 34.7689 52.8367 35.4194 52.8513 36.4327C52.8659 37.3984 52.8732 38.3662 52.8458 39.3319C52.8349 39.7344 52.9463 39.9427 53.2933 40.1132C54.1718 40.5455 54.7727 41.2991 54.9736 42.3223C55.0996 42.9668 55.0357 43.6529 55.0942 44.3172C55.1161 44.5651 55.18 44.8764 55.3334 45.0291C56.1352 45.8263 56.4201 46.8079 56.4147 47.96C56.3964 51.4799 56.4092 54.9978 56.4092 58.5177C56.4092 58.7814 56.4092 59.0432 56.4092 59.3585C58.9351 59.3585 61.3679 59.3624 63.8025 59.3585C66.2846 59.3545 67.764 57.7542 67.764 55.0692C67.7658 43.9662 67.764 32.8633 67.764 21.7583C67.764 21.4966 67.764 21.2368 67.764 20.977H3.23669C3.23669 21.2784 3.23669 21.5441 3.23669 21.8099C3.23669 32.8633 3.23669 43.9167 3.23669 54.972C3.23669 55.2199 3.23121 55.4678 3.24765 55.7157C3.36271 57.5083 4.67591 59.1978 6.29229 59.2891C8.49129 59.414 10.6994 59.3208 12.9989 59.3208V59.3188ZM3.24582 17.9053H67.7549C67.7549 14.4291 67.7549 11.0083 67.7531 7.5896C67.7531 7.46665 67.7293 7.3437 67.7074 7.22274C67.3385 5.17824 65.8993 3.97454 63.7989 3.97454C44.932 3.97454 26.0669 3.97454 7.20002 3.97454C7.01737 3.97454 6.83473 3.97454 6.65392 3.98445C4.86951 4.07369 3.30244 5.64425 3.26409 7.59158C3.19834 11.0083 3.24582 14.4291 3.24582 17.9073V17.9053ZM34.1342 46.5144C34.1342 44.113 34.1287 41.7373 34.1378 39.3636C34.1415 38.3424 34.6931 37.7098 35.5278 37.7256C36.3314 37.7395 36.8574 38.3602 36.8647 39.3478C36.8756 41.1305 36.8683 42.9152 36.8683 44.698C36.8683 45.3107 36.8683 45.9255 36.8683 46.6433C37.3797 46.4688 37.9204 46.919 38.2108 46.1396C39.4399 42.8399 40.7002 39.552 41.9421 36.2582C42.3019 35.3044 42.1193 34.4715 41.4326 33.7596C40.8554 33.1607 40.2582 32.5817 39.7322 31.9332C38.2911 30.1564 36.8848 28.3479 35.4474 26.5315C35.4401 26.5414 35.3579 26.6207 35.2976 26.7179C33.705 29.274 31.7836 31.5168 29.7234 33.6287C28.8193 34.5548 28.6805 35.2469 29.1536 36.4862C30.3316 39.5699 31.5425 42.6376 32.6731 45.741C32.9653 46.5422 33.3507 46.7742 34.136 46.5184L34.1342 46.5144ZM40.0061 59.3327V58.6029C40.0061 56.0528 40.0061 53.5046 40.0061 50.9544C40.0061 49.8459 39.7723 49.5802 38.7715 49.5782C36.5871 49.5722 34.4027 49.5722 32.2183 49.5782C31.2448 49.5802 30.9982 49.8499 30.9964 50.8929C30.9928 53.4927 30.9946 56.0904 30.9964 58.6902C30.9964 58.9024 31.022 59.1126 31.0366 59.3347H40.0043L40.0061 59.3327ZM21.4351 59.3228C21.4351 58.4483 21.4351 57.659 21.4351 56.8678C21.4351 52.6083 21.4351 48.3467 21.4351 44.0872C21.4351 43.6489 21.4698 43.2365 20.8671 43.2444C19.342 43.2662 17.8152 43.2345 16.2919 43.2741C16.1038 43.2781 15.7897 43.5577 15.7641 43.7441C15.6929 44.2934 15.7385 44.8606 15.7385 45.4694C16.3851 45.4694 16.9293 45.4614 17.4736 45.4694C18.4215 45.4852 19.0352 46.0583 19.0462 46.9249C19.0589 47.8192 18.4252 48.4221 17.4444 48.438C16.9019 48.4459 16.3595 48.438 15.7915 48.438V50.2722C16.4417 50.2722 17.0316 50.2504 17.6216 50.2782C18.4599 50.3159 19.0389 50.9346 19.0462 51.7555C19.0535 52.6023 18.4489 53.219 17.5722 53.2408C16.9878 53.2547 16.4015 53.2428 15.7897 53.2428V55.1108C16.3905 55.1108 16.933 55.1009 17.4773 55.1128C18.4343 55.1346 19.0389 55.7038 19.048 56.5723C19.0589 57.4667 18.4325 58.0596 17.4426 58.0794C16.9019 58.0893 16.3595 58.0794 15.7842 58.0794V59.3148H21.4351V59.3228ZM53.675 59.3188C53.675 55.4122 53.6714 51.5989 53.6805 47.7855C53.6805 47.3294 53.4632 47.262 53.118 47.264C52.0696 47.2759 51.0213 47.3017 49.9747 47.2541C49.4104 47.2283 49.288 47.4563 49.2916 48.0255C49.3117 51.5929 49.3008 55.1624 49.3044 58.7299C49.3044 58.9202 49.3318 59.1106 49.3483 59.3188H53.675ZM52.4239 44.2577C52.3271 43.7421 52.3728 43.0501 52.1244 42.8855C51.7902 42.6634 51.1254 42.6792 50.7984 42.9152C50.5592 43.0877 50.6359 43.7778 50.5683 44.2577H52.4239Z" fill="#21A715"/>
<path d="M70.5 6.97684V56.3542C70.4635 56.4434 70.4087 56.5267 70.3904 56.6199C69.6872 60.1695 67.2727 62.3072 63.9285 62.329C62.7213 62.337 61.514 62.329 60.3049 62.329C42.6015 62.329 24.898 62.331 7.19271 62.329C3.28966 62.329 0.508022 59.41 0.504369 55.2754C0.497064 39.5322 0.497064 23.7929 0.518981 8.05362C0.518981 7.2505 0.64683 6.41564 0.878785 5.65416C1.77008 2.72722 4.1499 1 7.19636 1C26.0614 1 44.9283 1 63.7934 1C63.976 1 64.1587 1 64.3395 1.00793C66.8581 1.14873 68.6973 2.45752 69.8315 4.88673C70.1347 5.53716 70.2808 6.27485 70.4982 6.97287L70.5 6.97684ZM12.9989 59.3188C12.9989 56.3661 12.9989 53.4927 12.9989 50.6193C12.9989 48.3646 12.9843 46.1079 13.0044 43.8532C13.0245 41.6501 14.2975 40.2877 16.3065 40.2818C17.7878 40.2778 19.269 40.2798 20.7484 40.2818C22.9419 40.2837 24.1674 41.6163 24.1693 44.0118C24.1729 48.8207 24.1693 53.6275 24.1693 58.4364C24.1693 58.7239 24.1693 59.0114 24.1693 59.3148H28.2623C28.2623 59.0075 28.2623 58.7418 28.2623 58.476C28.2623 55.9477 28.2586 53.4193 28.2659 50.8929C28.2659 50.5241 28.2897 50.1493 28.3444 49.7864C28.5326 48.5312 29.2522 47.6705 30.211 46.9943C29.0403 43.9325 27.8878 40.9183 26.7354 37.9061C25.6815 35.1517 26.0486 33.3412 28.0175 31.2828C30.4722 28.7168 32.7826 26.0218 34.3059 22.6487C34.5451 22.1192 34.9543 21.8357 35.5131 21.8357C36.0994 21.8357 36.4884 22.143 36.7697 22.6884C37.2391 23.5926 37.6336 24.5742 38.2382 25.3575C39.8892 27.4972 41.5933 29.5952 43.354 31.6298C44.8023 33.3035 45.2498 35.2905 44.4571 37.4302C44.0498 38.5308 43.6224 39.6254 43.206 40.722C42.4115 42.822 41.6189 44.922 40.8152 47.0419C42.3056 48.0056 42.7841 49.4453 42.7494 51.2182C42.7001 53.6454 42.7366 56.0746 42.7366 58.5038V59.297H46.5666C46.5666 58.9678 46.5666 58.6981 46.5666 58.4264C46.5666 54.857 46.5301 51.2876 46.5958 47.7201C46.6105 46.9784 46.8369 46.09 47.2643 45.5447C47.783 44.8824 47.8944 44.2518 47.8707 43.4725C47.825 41.9078 48.4551 40.7716 49.7336 40.0359C49.9163 39.9308 50.0934 39.6135 50.1026 39.3874C50.1427 38.3979 50.1117 37.4064 50.1227 36.4149C50.1336 35.4313 50.6596 34.8007 51.4559 34.7848C52.276 34.7689 52.8367 35.4194 52.8513 36.4327C52.8659 37.3984 52.8732 38.3662 52.8458 39.3319C52.8349 39.7344 52.9463 39.9427 53.2933 40.1132C54.1718 40.5455 54.7727 41.2991 54.9736 42.3223C55.0996 42.9668 55.0357 43.6529 55.0942 44.3172C55.1161 44.5651 55.18 44.8764 55.3334 45.0291C56.1352 45.8263 56.4201 46.8079 56.4147 47.96C56.3964 51.4799 56.4092 54.9978 56.4092 58.5177C56.4092 58.7814 56.4092 59.0432 56.4092 59.3585C58.9351 59.3585 61.3679 59.3624 63.8025 59.3585C66.2846 59.3545 67.764 57.7542 67.764 55.0692C67.7658 43.9662 67.764 32.8633 67.764 21.7583C67.764 21.4966 67.764 21.2368 67.764 20.977H3.23669C3.23669 21.2784 3.23669 21.5441 3.23669 21.8099C3.23669 32.8633 3.23669 43.9167 3.23669 54.972C3.23669 55.2199 3.23121 55.4678 3.24765 55.7157C3.36271 57.5083 4.67591 59.1978 6.29229 59.2891C8.49129 59.414 10.6994 59.3208 12.9989 59.3208V59.3188ZM3.24582 17.9053H67.7549C67.7549 14.4291 67.7549 11.0083 67.7531 7.5896C67.7531 7.46665 67.7293 7.3437 67.7074 7.22274C67.3385 5.17824 65.8993 3.97454 63.7989 3.97454C44.932 3.97454 26.0669 3.97454 7.20002 3.97454C7.01737 3.97454 6.83473 3.97454 6.65392 3.98445C4.86951 4.07369 3.30244 5.64425 3.26409 7.59158C3.19834 11.0083 3.24582 14.4291 3.24582 17.9073V17.9053ZM34.1342 46.5144C34.1342 44.113 34.1287 41.7373 34.1378 39.3636C34.1415 38.3424 34.6931 37.7098 35.5278 37.7256C36.3314 37.7395 36.8574 38.3602 36.8647 39.3478C36.8756 41.1305 36.8683 42.9152 36.8683 44.698C36.8683 45.3107 36.8683 45.9255 36.8683 46.6433C37.3797 46.4688 37.9204 46.919 38.2108 46.1396C39.4399 42.8399 40.7002 39.552 41.9421 36.2582C42.3019 35.3044 42.1193 34.4715 41.4326 33.7596C40.8554 33.1607 40.2582 32.5817 39.7322 31.9332C38.2911 30.1564 36.8848 28.3479 35.4474 26.5315C35.4401 26.5414 35.3579 26.6207 35.2976 26.7179C33.705 29.274 31.7836 31.5168 29.7234 33.6287C28.8193 34.5548 28.6805 35.2469 29.1536 36.4862C30.3316 39.5699 31.5425 42.6376 32.6731 45.741C32.9653 46.5422 33.3507 46.7742 34.136 46.5184L34.1342 46.5144ZM40.0061 59.3327V58.6029C40.0061 56.0528 40.0061 53.5046 40.0061 50.9544C40.0061 49.8459 39.7723 49.5802 38.7715 49.5782C36.5871 49.5722 34.4027 49.5722 32.2183 49.5782C31.2448 49.5802 30.9982 49.8499 30.9964 50.8929C30.9928 53.4927 30.9946 56.0904 30.9964 58.6902C30.9964 58.9024 31.022 59.1126 31.0366 59.3347H40.0043L40.0061 59.3327ZM21.4351 59.3228C21.4351 58.4483 21.4351 57.659 21.4351 56.8678C21.4351 52.6083 21.4351 48.3467 21.4351 44.0872C21.4351 43.6489 21.4698 43.2365 20.8671 43.2444C19.342 43.2662 17.8152 43.2345 16.2919 43.2741C16.1038 43.2781 15.7897 43.5577 15.7641 43.7441C15.6929 44.2934 15.7385 44.8606 15.7385 45.4694C16.3851 45.4694 16.9293 45.4614 17.4736 45.4694C18.4215 45.4852 19.0352 46.0583 19.0462 46.9249C19.0589 47.8192 18.4252 48.4221 17.4444 48.438C16.9019 48.4459 16.3595 48.438 15.7915 48.438V50.2722C16.4417 50.2722 17.0316 50.2504 17.6216 50.2782C18.4599 50.3159 19.0389 50.9346 19.0462 51.7555C19.0535 52.6023 18.4489 53.219 17.5722 53.2408C16.9878 53.2547 16.4015 53.2428 15.7897 53.2428V55.1108C16.3905 55.1108 16.933 55.1009 17.4773 55.1128C18.4343 55.1346 19.0389 55.7038 19.048 56.5723C19.0589 57.4667 18.4325 58.0596 17.4426 58.0794C16.9019 58.0893 16.3595 58.0794 15.7842 58.0794V59.3148H21.4351V59.3228ZM53.675 59.3188C53.675 55.4122 53.6714 51.5989 53.6805 47.7855C53.6805 47.3294 53.4632 47.262 53.118 47.264C52.0696 47.2759 51.0213 47.3017 49.9747 47.2541C49.4104 47.2283 49.288 47.4563 49.2916 48.0255C49.3117 51.5929 49.3008 55.1624 49.3044 58.7299C49.3044 58.9202 49.3318 59.1106 49.3483 59.3188H53.675ZM52.4239 44.2577C52.3271 43.7421 52.3728 43.0501 52.1244 42.8855C51.7902 42.6634 51.1254 42.6792 50.7984 42.9152C50.5592 43.0877 50.6359 43.7778 50.5683 44.2577H52.4239Z" stroke="#21A715" mask="url(#path-1-outside-1_1_619)"/>
<path d="M21.3547 6.93116C23.6396 6.92719 25.4952 8.93005 25.5007 11.4068C25.5062 13.8678 23.6378 15.9004 21.3657 15.9044C19.0955 15.9083 17.2234 13.8817 17.2197 11.4187C17.2161 8.94591 19.0699 6.93512 21.3547 6.93116ZM21.3748 9.90966C20.6096 9.90173 19.9776 10.5581 19.9594 11.3791C19.9393 12.2159 20.6023 12.9377 21.3803 12.9258C22.131 12.9139 22.7629 12.2199 22.7629 11.4088C22.7629 10.5898 22.1364 9.91561 21.3748 9.90768V9.90966Z" fill="#0D0D0D"/>
<path d="M14.3357 11.4347C14.3265 13.9234 12.4873 15.9104 10.197 15.9024C7.91763 15.8945 6.09121 13.8817 6.09669 11.3891C6.104 8.90038 7.94685 6.91735 10.239 6.92925C12.5348 6.94115 14.3448 8.93013 14.3357 11.4347ZM8.83267 11.395C8.82536 12.2398 9.43173 12.916 10.2007 12.9259C10.9787 12.9358 11.5887 12.2814 11.5979 11.4307C11.607 10.5741 11.0189 9.91966 10.2335 9.91172C9.44817 9.90379 8.83997 10.5463 8.83449 11.397L8.83267 11.395Z" fill="#0D0D0D"/>
<path d="M32.4884 6.92922C34.7842 6.92129 36.6142 8.90035 36.6179 11.397C36.6234 13.8916 34.7969 15.8945 32.5121 15.9004C30.2291 15.9064 28.3826 13.9075 28.3789 11.4247C28.3753 8.92811 30.1944 6.93517 32.4884 6.92922ZM33.8801 11.4287C33.8874 10.572 33.2993 9.91764 32.5139 9.90971C31.7286 9.90178 31.1222 10.5463 31.1149 11.395C31.1094 12.2398 31.7139 12.916 32.4847 12.9239C33.2628 12.9318 33.8728 12.2774 33.8801 11.4267V11.4287Z" fill="#0D0D0D"/>
<path d="M35.4675 35.7981C34.7406 35.7763 34.1324 35.0862 34.1397 34.291C34.147 33.4542 34.7863 32.8037 35.568 32.8414C36.3113 32.8771 36.8921 33.5573 36.8629 34.3624C36.8355 35.1516 36.1871 35.8179 35.4675 35.7961V35.7981Z" fill="#21A715"/>
</svg>
